<?xml version="1.0" standalone="no"?>
<!DOCTYPE svg PUBLIC "-//W3C//DTD SVG 20010904//EN"
 "http://www.w3.org/TR/2001/REC-SVG-20010904/DTD/svg10.dtd">
<svg version="1.0" xmlns="http://www.w3.org/2000/svg"
 width="932.000000pt" height="1280.000000pt" viewBox="0 0 932.000000 1280.000000"
 preserveAspectRatio="xMidYMid meet">
<g transform="translate(0.000000,1280.000000) scale(0.100000,-0.100000)"
fill="#000000" stroke="none">
<path d="M301 12689 c-156 -333 -236 -605 -280 -957 -26 -202 -26 -248 0 -442
42 -324 125 -572 276 -828 90 -154 245 -363 325 -438 l33 -32 110 65 c165 97
529 273 715 346 331 130 706 238 1068 307 113 22 176 30 182 24 7 -7 0 -82
-20 -217 -62 -428 -61 -453 5 -1252 19 -225 41 -536 50 -690 28 -515 46 -754
125 -1720 117 -1416 143 -1822 160 -2526 18 -713 -14 -1405 -91 -1974 -57
-421 -152 -880 -251 -1202 -31 -102 -31 -104 -21 -217 l9 -115 74 -68 c180
-167 401 -336 600 -458 210 -129 575 -295 649 -295 48 0 130 47 138 79 4 14
-11 128 -32 255 l-38 230 7 490 c3 270 11 658 16 861 5 204 14 570 20 815 6
245 15 602 21 793 6 192 8 365 5 385 -3 20 -15 145 -26 277 -11 132 -24 292
-29 355 -6 63 -17 196 -26 295 -8 99 -22 257 -30 350 -8 94 -24 276 -35 405
-11 129 -24 287 -29 350 -6 63 -17 194 -26 290 -8 96 -21 254 -30 350 -45 530
-56 659 -66 805 -14 202 -6 687 16 895 56 542 178 1077 364 1595 34 92 61 180
61 194 0 14 -31 195 -69 401 -42 229 -65 379 -60 386 5 6 35 17 67 23 136 27
266 124 324 241 l26 55 -8 180 c-5 99 -18 423 -30 720 -15 358 -26 544 -34
552 -15 15 -167 40 -334 54 -163 14 -560 6 -867 -16 -437 -32 -988 -29 -1710
11 -435 24 -1128 88 -1222 113 l-31 9 -51 -109z"/>
</g>
</svg>
